# xmcd
#
# Track frame offsets:
#	150
#	16238
#	19958
#	23043
#	26647
#	40124
#	43050
#	59272
#	71799
#	100767
#	105885
#	108580
#	119966
#	125979
#	130408
#	147809
#	171058
#	188525
#	192265
#	194717
#	201630
#
# Disc length: 2794 seconds
#
# Revision: 0
# Processed by: cddbd v1.4PL0 Copyright (c) Steve Scherf et al.
# Submitted via: MusicWizard 6.0.0
#
DISCID=3c0ae815
DTITLE=Johnny Cash - Gospel Road Cd 2v2
DYEAR=1973
DGENRE=Country
TTITLE0=He Turned The Water Into Wine Part 2 And 3
TTITLE1=He Turned The Water Into Wine Part 4
TTITLE2=Gospel Road Part 4
TTITLE3=More Jesus' Teachings
TTITLE4=Children
TTITLE5=Four Month To Live
TTITLE6=Help
TTITLE7=Jesus' Second Coming
TTITLE8=Burdon Of Freedom
TTITLE9=Feast Of The Passover
TTITLE10=Lord, Is It I?
TTITLE11=The Last Supper
TTITLE12=And Now He's Alone
TTITLE13=Agony In Gethsesane
TTITLE14=Burdon Of Freedom Part 2
TTITLE15=Crucifixion
TTITLE16=Jesus' Death
TTITLE17=The Great Commissare
TTITLE18=Ascension, Amen Chorus
TTITLE19=Jesus Was A Carpenter Part 2
TTITLE20=Ending
EXTD=(c)1973 CBS
EXTT0=
EXTT1=
EXTT2=
EXTT3=
EXTT4=
EXTT5=
EXTT6=
EXTT7=
EXTT8=
EXTT9=
EXTT10=
EXTT11=
EXTT12=
EXTT13=
EXTT14=
EXTT15=
EXTT16=
EXTT17=
EXTT18=
EXTT19=
EXTT20=
PLAYORDER=
